<svg xmlns="http://www.w3.org/2000/svg" viewBox="0 0 250.23 254.9"><defs><style>.cls-1{fill:#1e3652;}</style></defs><title>Asset 2</title><g id="Layer_2" data-name="Layer 2"><g id="Layer_1-2" data-name="Layer 1"><path class="cls-1" d="M137.68,77.36H126.24l21.62-33.5V10.09l30.53,8.64L153.2,23.22V43.11c.25.24,83.46,0,90.74.11C233.88,31.45,219.58,21.43,202.27,14c-20.7-8.86-45.6-14-72.41-14C94.11,0,61.74,9.17,38.22,24.07,26.47,31.52,16.93,40.41,10.3,50.32S0,71.19,0,82.7s3.69,22.46,10.3,32.37c9.93,14.88,26.43,27.44,47.13,36.3s45.61,14,72.43,14c2,0,4.06-.14,6.1-.2.65,0,1.31,0,2,0C137.93,126.32,137.68,77.36,137.68,77.36Zm-13.13,79a52.62,52.62,0,0,1-5.44-4.24c-7.45-6.65-14.79-16.46-20.26-28.7a106,106,0,0,1-9-40.9h34.72Zm-34.71-78c.54-21,10.6-39.74,20.74-53.33a146.6,146.6,0,0,1,14-16.18l0,69.51ZM124.61,5.73a150.15,150.15,0,0,0-15.81,18c-10.3,13.83-20.63,33-21.18,54.67H46.47C47,66.24,52.1,55.54,59.75,46.24c12-14.56,30-25.61,45-33C112.28,9.59,119,6.82,123.92,5l.69-.25ZM87.66,82.53A106.21,106.21,0,0,0,103,136a81.11,81.11,0,0,0,14.64,17.78,53.65,53.65,0,0,0,6.92,5.26v1.37l-1-.3a152.36,152.36,0,0,1-47.31-25.84c-8.22-6.73-15.7-14.64-21.11-23.65a58.63,58.63,0,0,1-8.68-28.1Zm-75.51-31c9.61-14.4,25.76-26.76,46.16-35.48C77.34,7.91,100.1,3,124.61,2.34h0A215.4,215.4,0,0,0,87.92,20C77.1,26.57,66.24,34.84,58,44.82c-7.88,9.59-13.28,20.8-13.78,33.54H2.41A56.86,56.86,0,0,1,12.15,51.55Zm27.26,87.89c-11.54-7.3-20.85-16-27.26-25.6S2.23,93.72,2.23,82.7v-.17h42c.47,12.4,4.87,23.5,11.5,33.15C66.3,131,82.34,142.8,97.09,150.94a155.62,155.62,0,0,0,20.32,9.41c2.65,1,5,1.77,7.14,2.38V163C91.32,162.14,61.33,153.34,39.41,139.44Z"/><path class="cls-1" d="M247.26,119.26l-.29.36Z"/><path class="cls-1" d="M181.76,92.93c.25-7.49-2.95-17.16-13.92-17.16-11.23,0-14.79,6.17-14.79,17.16,0,8.72.26,62.34.26,72.27v.08c17.46-1.74,22.95-3.74,28.19-5.23v-.6C181.5,152.29,181.58,98,181.76,92.93Z"/><path class="cls-1" d="M219.18,92.93c0-6.74-1.7-17.16-13.92-17.16-9.76,0-14.78,6.42-14.78,17.16.26,10.47,0,52.39,0,63.37,6-1.5,24.7-10.22,28.7-13.22Z"/><path class="cls-1" d="M247.26,119.26c.74-.91,1.36-1.72,1.86-2.44a13.22,13.22,0,0,0,1-1.68c.24-2.25,0-12.49,0-22.46s-3.69-16.91-11.93-16.91c-8.47,0-12.27,6.17-12.27,16.65,0,0,.25,42.67.25,46.16,5.06-2.71,14.31-11.46,19.79-17.77l1-1.19Z"/><path class="cls-1" d="M113.18,254.79,91,223.39h6.17c2.57,0,5.33-1.18,8.37-3.51q7.45-8.07,7.47-17.95v-3.08A27,27,0,0,0,110.5,188q-5.56-10.67-13.18-10.66H40.23V254.9H55V223.39H72.67c.08,0,21.26,31.46,21.26,31.46m1.41-52.77c-1.72,4.55-5.2,6.81-10.38,6.81H55v-17H85.13a11.2,11.2,0,0,1,3.23.45c4.77,1.61,7.14,4.25,7.14,7.89Z"/><rect class="cls-1" x="122.7" y="177.3" width="14.7" height="77.49"/><path class="cls-1" d="M224.45,221.87q-4.71-13.29-16.29-13.3H173.58a4.81,4.81,0,0,1-2-.33c-4.65-1.65-7-4.25-7-7.84a16.12,16.12,0,0,1,.32-2.15c1.85-4.22,5.3-6.34,10.39-6.34h50V177.37H163.84a12.3,12.3,0,0,0-7.13,2.75,24.51,24.51,0,0,0-8.55,19.21v2.28a26.33,26.33,0,0,0,1.09,7.12q4.84,14.66,16,14.66h34.39a12.36,12.36,0,0,1,2,.16q7.91,2.31,7.9,8.21c0,.22,0,.79-.15,1.68-1.75,4.55-5,6.8-9.78,6.8H148.23V254.9h62.25c2.43,0,5-1.13,7.79-3.39A24.9,24.9,0,0,0,226,233.28v-2.92A26.21,26.21,0,0,0,224.45,221.87Z"/></g></g></svg>