<svg xmlns="http://www.w3.org/2000/svg" viewBox="0 0 932.52 65.86"><defs><style>.cls-1,.cls-2{fill:#1e3652;}.cls-2{font-size:46px;font-family:Avenir-Black, Avenir;font-weight:bold;}.cls-3{letter-spacing:-0.09em;}</style></defs><title>Asset 2</title><g id="Layer_2" data-name="Layer 2"><g id="Layer_1-2" data-name="Layer 1"><path class="cls-1" d="M48.62,28.1h-4l7.63-12.17V3.67L63,6.8,54.1,8.43v7.23c.09.08,29.47,0,32,0A39.78,39.78,0,0,0,71.43,5.09,63.89,63.89,0,0,0,45.86,0C33.23,0,21.8,3.33,13.5,8.74a33.37,33.37,0,0,0-9.86,9.54A21.43,21.43,0,0,0,0,30,21.44,21.44,0,0,0,3.64,41.79C7.14,47.2,13,51.76,20.28,55a64.07,64.07,0,0,0,25.58,5.09c.72,0,1.43,0,2.15-.07h.7C48.71,45.88,48.62,28.1,48.62,28.1ZM44,56.79a18.5,18.5,0,0,1-1.92-1.54,31,31,0,0,1-7.15-10.42A39.38,39.38,0,0,1,31.73,30H44ZM31.73,28.46c.18-7.63,3.74-14.43,7.32-19.37a53,53,0,0,1,5-5.88V28.46ZM44,2.08a54.83,54.83,0,0,0-5.58,6.53c-3.64,5-7.29,12-7.48,19.85H16.41A19.91,19.91,0,0,1,21.1,16.79c4.23-5.28,10.59-9.3,15.9-12,2.65-1.34,5-2.34,6.76-3L44,1.72ZM31,30A39.37,39.37,0,0,0,36.37,49.4a29.16,29.16,0,0,0,5.17,6.45A19.48,19.48,0,0,0,44,57.77v.49l-.35-.11a53.29,53.29,0,0,1-16.71-9.38,33.77,33.77,0,0,1-7.45-8.59A21.73,21.73,0,0,1,16.41,30ZM4.29,18.72C7.68,13.49,13.39,9,20.59,5.84A62.44,62.44,0,0,1,44,.85h0a74.94,74.94,0,0,0-12.95,6.4,42.27,42.27,0,0,0-10.56,9,20.65,20.65,0,0,0-4.86,12.18H.85A21,21,0,0,1,4.29,18.72Zm9.63,31.92a32.27,32.27,0,0,1-9.63-9.3A20.63,20.63,0,0,1,.79,30V30H15.63a23,23,0,0,0,4.06,12c3.72,5.57,9.39,9.85,14.59,12.81a55.71,55.71,0,0,0,7.18,3.42c.94.36,1.78.64,2.52.86v.1C32.25,58.89,21.66,55.69,13.92,50.64Z"/><path class="cls-1" d="M87.31,43.31a1.47,1.47,0,0,1-.1.13A1.47,1.47,0,0,0,87.31,43.31Z"/><path class="cls-1" d="M64.18,33.75c.09-2.72-1-6.23-4.91-6.23s-5.22,2.24-5.22,6.23c0,3.17.09,22.64.09,26.25v0a43.55,43.55,0,0,0,10-1.9v-.22C64.09,55.31,64.12,35.58,64.18,33.75Z"/><path class="cls-1" d="M77.4,33.75c0-2.45-.6-6.23-4.92-6.23-3.44,0-5.22,2.33-5.22,6.23s0,19,0,23A53.11,53.11,0,0,0,77.4,52Z"/><path class="cls-1" d="M87.31,43.31c.27-.33.48-.62.66-.88a5.5,5.5,0,0,0,.35-.61c.09-.82,0-4.54,0-8.16s-1.3-6.14-4.21-6.14-4.33,2.24-4.33,6.05c0,0,.09,15.49.09,16.76,1.78-1,5-4.16,7-6.45l.36-.44A1.47,1.47,0,0,0,87.31,43.31Z"/><text class="cls-2" transform="translate(96.06 44.84) scale(0.93 1)">RUAMRUDEE INTERNATIONAL SCHOOL</text></g></g></svg>